<?xml version="1.0" encoding="UTF-8"?>
<svg id="Layer_2" data-name="Layer 2" xmlns="http://www.w3.org/2000/svg" viewBox="0 0 410.82 154.6">
  <defs>
    <style>
      .cls-1 {
        fill: #231f20;
      }

      .cls-2 {
        fill: #ee2f24;
      }
    </style>
  </defs>
  <g id="Layer_1-2" data-name="Layer 1">
    <g>
      <path class="cls-1" d="M154.6,77.3c0,42.69-34.61,77.3-77.3,77.3S0,120,0,77.3,34.61,0,77.3,0s77.3,34.61,77.3,77.3"/>
      <path class="cls-2" d="M61.12,46.69c.14-.65.51-.85.99-.85,4.64,0,9.28,0,13.92,0,1.93,0,3.86,0,5.79.02.17,0,.33.05.51.07.04.62-.25.77-.77.77-1.43-.02-2.86,0-4.29-.01-.46,0-.76.13-.94.58-.79,1.97-1.61,3.94-2.4,5.91-.78,1.95-1.54,3.91-2.3,5.86-.69,1.77-1.37,3.54-2.05,5.31-.02.05-.04.09-.06.14-.46,1.22-.46,1.27.82,1.28,4.36.03,8.73.01,13.09.01.15,0,.3-.01.45-.01,1.41-.01,1.62-.25,2.1-1.61.5-1.43,1.14-2.82,1.71-4.23.47-1.18.91-2.38,1.37-3.56.58-1.49,1.19-2.97,1.77-4.46.5-1.3.97-2.61,1.46-3.91.03-.07.04-.15.07-.21.47-1.03.43-1.1-.75-1.1-1.21,0-2.41,0-3.61-.02-.23,0-.46-.18-.69-.27.2-.16.38-.36.6-.47.17-.08.39-.07.59-.07,4.37,0,8.73,0,13.1,0,2.13,0,4.26-.02,6.39,0,.19,0,.37.22.56.33-.2.17-.39.49-.59.5-1.43.04-2.86.05-4.29.01-.78-.02-1.23.27-1.52,1.03-1.58,4.08-3.22,8.14-4.82,12.21-1.14,2.91-2.23,5.84-3.36,8.76-.72,1.86-1.51,3.7-2.24,5.56-.93,2.38-1.81,4.76-2.74,7.14-.53,1.37-1.09,2.74-1.64,4.11-.09.23-.21.46-.28.7-.22.74-.05,1,.7,1.01,1.23.01,2.46-.03,3.69.01.31,0,.87.22.88.36.03.56-.47.54-.88.54-4.82,0-9.63-.01-14.45-.02-1.71,0-3.41,0-5.12,0-.19,0-.38-.07-.6-.12.09-.55.39-.76.88-.76,1.15,0,2.31,0,3.46,0,1.31,0,1.64-.29,2.14-1.64.78-2.08,1.61-4.13,2.41-6.21.47-1.23.91-2.49,1.39-3.72.75-1.96,1.52-3.91,2.27-5.87.31-.82.63-1.63.91-2.45.13-.38.09-.69-.47-.68-3.91.04-7.82.07-11.74.09-1.08,0-2.16-.02-3.24-.04-.5,0-.81.13-1,.68-.71,2-1.5,3.98-2.25,5.97-.75,1.96-1.48,3.93-2.24,5.89-.69,1.77-1.39,3.53-2.08,5.3-.26.65-.55,1.29-.77,1.94-.18.52.07.73.61.72,1.33-.01,2.66-.02,3.99.02.26,0,.51.24.77.36-.25.18-.51.5-.76.5-2.28.04-4.57,0-6.85.01-4.24,0-8.48.02-12.72,0-.3,0-.84-.21-.84-.33,0-.51.42-.58.86-.57,1.28.01,2.56.01,3.84,0,1.05,0,1.31-.27,1.67-1.24.67-1.83,1.42-3.63,2.13-5.44.75-1.91,1.48-3.82,2.24-5.72.56-1.41,1.16-2.8,1.71-4.22.48-1.23.9-2.49,1.37-3.72.77-1.98,1.56-3.95,2.33-5.93.52-1.33,1-2.67,1.52-4,.46-1.21.95-2.42,1.42-3.62.75-1.88,1.51-3.75,2.25-5.63.28-.71.07-.99-.69-.99-1.53,0-3.05,0-4.68,0"/>
      <path class="cls-2" d="M117.92,65.73c.24.06.36.11.47.11,1.58-.01,3.18.12,4.74-.08,2.37-.3,4.54-1.17,6.3-2.88,1.56-1.51,2.7-3.3,3.51-5.28.79-1.93,1.28-3.97,1.21-6.08-.05-1.42-.32-2.8-1.54-3.77-.9-.72-1.97-.97-3.08-1.01-1.08-.05-2.16,0-3.23-.04-.76-.03-1.14.39-1.41,1-.13.3-.21.62-.32.92-.97,2.49-1.95,4.98-2.93,7.47-.99,2.54-1.98,5.08-2.96,7.62-.26.66-.5,1.32-.76,2.02M109.98,46.26c.39-.14.77-.4,1.16-.41,4.52-.03,9.03-.03,13.55-.01,2.5,0,5.02-.04,7.51.13,1.71.12,3.44.43,5.08.92,2.55.75,4.56,2.27,5.56,4.85.13.34.11.74.17,1.11.5,3.72-.92,6.6-3.84,8.83-2.14,1.64-4.56,2.69-7.19,3.27-1.83.4-3.66.8-5.49,1.21-.18.04-.33.15-.71.32.97.34,1.75.56,2.49.88,2.6,1.17,4.67,2.94,5.73,5.63.36.92.37,2.04.3,3.05-.12,1.77-.44,3.52-.62,5.29-.11,1.15-.19,2.31-.15,3.45.05,1.22,1.48,1.99,2.78,1.58,1.66-.52,2.84-1.67,3.75-3.08.56-.86.94-1.82,1.44-2.71.11-.19.41-.27.63-.39.05.31.25.69.14.93-.38.82-.81,1.62-1.31,2.36-.97,1.44-1.97,2.87-3.57,3.69-.91.46-1.81,1-2.79,1.22-3.02.7-6,.8-8.49-1.5-1.09-1.01-1.58-2.37-1.71-3.83-.2-2.31.47-4.51.89-6.75.38-2.03,1.13-4.02.91-6.14-.21-2.16-1.68-3.08-3.48-3.32-1.58-.21-3.21-.1-4.81-.08-.22,0-.54.26-.63.48-.76,1.9-1.46,3.83-2.2,5.73-1.38,3.57-2.77,7.14-4.17,10.71-.31.79-.65,1.57-1.01,2.33-.38.83-.17,1.18.72,1.16,1.4-.03,2.81-.04,4.21-.04.18,0,.36.18.53.27-.14.21-.23.51-.42.61-.23.12-.54.07-.82.07-6.4,0-12.79,0-19.19-.01-.34,0-.86.13-.82-.46.03-.53.49-.45.87-.45,1.33,0,2.66-.02,3.99-.02.66,0,1.12-.37,1.34-.93.73-1.86,1.38-3.75,2.11-5.61.71-1.81,1.49-3.59,2.22-5.39.52-1.3.96-2.63,1.47-3.93.75-1.9,1.54-3.79,2.3-5.69.49-1.23.94-2.48,1.42-3.71.76-1.95,1.53-3.91,2.29-5.86.52-1.35,1.03-2.71,1.56-4.05.54-1.39,1.08-2.78,1.67-4.15.36-.84.2-1.15-.71-1.15-1.3,0-2.61-.01-3.91-.02-.21,0-.43-.05-.64-.07-.03-.11-.06-.22-.09-.33"/>
      <path class="cls-2" d="M13.55,87.64c.34-.15.68-.41,1.02-.43,1.3-.05,2.61-.01,3.91-.02.76,0,1.31-.47,1.56-1.17.52-1.43,1.09-2.85,1.63-4.27.53-1.4,1.03-2.81,1.59-4.19.75-1.88,1.54-3.74,2.29-5.61.51-1.28.95-2.58,1.45-3.86.74-1.91,1.51-3.81,2.25-5.72.54-1.42,1.04-2.86,1.59-4.28.69-1.79,1.42-3.56,2.13-5.35.56-1.41,1.09-2.84,1.65-4.25.13-.32.32-.61.45-.93.15-.38.23-.79-.35-.83-2.04-.14-4.09-.06-5.99.74-1.92.81-3.64,1.98-5.2,3.39-2.95,2.66-5.34,5.77-7.36,9.17-.4.66-.78,1.34-1.24,1.97-.17.24-.52.36-.79.53-.04-.06-.07-.12-.1-.18.44-1.23.85-2.46,1.31-3.67.5-1.33,1.05-2.63,1.56-3.96.74-1.93,1.46-3.88,2.2-5.82.3-.79.68-1.56.94-2.37.15-.47.41-.66.86-.66,3.09,0,6.17,0,9.26.01,1.53,0,3.06.03,4.59.04,3.84.01,7.68.05,11.51.04,4.36-.01,8.73-.07,13.09-.1.25,0,.49,0,.83,0-.06.35-.06.63-.15.86-1.03,2.68-2.08,5.36-3.13,8.03-.88,2.24-1.75,4.47-2.64,6.7-.1.26-.22.52-.39.72-.1.12-.33.14-.5.21-.02-.17-.07-.34-.05-.51.04-.49.11-.98.16-1.46.2-1.81.49-3.62.57-5.44.08-1.93-.4-3.77-1.28-5.51-.54-1.06-1.41-1.78-2.47-2.04-1.49-.38-3.05-.51-4.59-.7-.64-.08-.93.38-1.13.9-1.23,3.2-2.47,6.4-3.7,9.59-1.16,3.01-2.29,6.03-3.46,9.04-1.14,2.91-2.32,5.81-3.46,8.72-1.37,3.52-2.7,7.05-4.06,10.58-.1.25-.27.47-.39.72-.27.61-.03.96.63.95,1.41-.01,2.81-.04,4.21-.02.23,0,.64.2.66.36.06.44-.28.57-.69.57-1.36-.01-2.71-.01-4.06-.01-5.2,0-10.39,0-15.58,0-.34,0-.68-.06-1.02-.09-.03-.12-.07-.25-.1-.37"/>
      <polygon class="cls-2" points="54.39 111.1 57.71 111.1 53.93 123.45 50.61 123.45 54.39 111.1"/>
      <polygon class="cls-2" points="59.24 111.1 63.07 111.1 65.89 118.86 66.19 118.86 68.56 111.1 71.79 111.1 68.02 123.45 64.27 123.45 61.38 115.69 61.07 115.69 58.7 123.45 55.47 123.45 59.24 111.1"/>
      <path class="cls-2" d="M80.64,117.27c.69-2.25-.18-3.4-2.31-3.4h-2.51l-2.09,6.78h2.53c2.13,0,3.7-1.15,4.38-3.38M83.97,117.27c-1.08,3.51-3.68,6.17-8.56,6.17h-5.85l3.77-12.35h5.85c4.88,0,5.87,2.65,4.79,6.17"/>
      <polygon class="cls-2" points="87.24 111.1 90.56 111.1 86.79 123.45 83.47 123.45 87.24 111.1"/>
      <path class="cls-2" d="M98.28,119.04l-.25-4.82h-.6l-3.21,4.82h4.06ZM98.4,121.52h-5.82l-1.28,1.92h-3.43l8.48-12.34h4.64l.93,12.34h-3.43l-.1-1.92Z"/>
      <g>
        <path class="cls-1" d="M212.63,58.36h-.89c-.81-3.26-4.81-10.59-8-11.04-1.78-.22-4.15-.3-6.15-.3h-4.67v43.48c0,1.63.59,2.96,2.3,3.7.89.37,4.74,1.11,6.07,1.19v.89h-22.81v-.89c1.33-.07,5.11-.44,6.07-.81,1.78-.67,2.3-2.07,2.3-3.7v-43.85h-4.74c-1.48,0-4.3.07-6.07.3-3.19.44-7.26,7.78-8,11.04h-.96v-12.67h45.55v12.67Z"/>
        <path class="cls-1" d="M261.88,86.73c0,6.96-1.93,10.37-7.85,10.37-5.48,0-7.7-4.37-8.96-12.67-.82-5.41-2.37-13.26-10.81-13.26h-7.04v19.85c0,1.63.52,3.04,2.3,3.7,1.04.37,4.22.59,5.56.67v.89h-21.26v-.89c1.33-.07,4.15-.37,5.11-.74,1.78-.67,2.3-2.07,2.3-3.7v-39.77c0-1.63-.44-3.18-2.3-3.7-1.26-.37-3.78-.81-5.11-.89v-.89h24.96c5.7,0,14.22,3.33,14.22,11.41s-8.44,11.41-13.7,12.89v.52c3.33.22,9.7,2.52,11.11,7.7,1.11,4.07,1.56,7.92,2.59,11.55.81,2.89,2.07,4,4.07,4s3.55-1.41,3.55-7.04v-1.56h1.26v1.56ZM245.66,58.21c0-8.81-5.18-11.26-10.44-11.26h-8v22.59h5.93c6.59,0,12.52-3.04,12.52-11.33Z"/>
        <path class="cls-1" d="M283.51,96.28h-21.41v-.89c1.33-.07,4.44-.3,5.41-.67,1.78-.67,2.3-1.93,2.3-3.55v-39.77c0-1.63-.37-2.81-2.3-3.56-1.33-.52-4.07-1.19-5.41-1.26v-.89h21.41v.89c-1.33.07-4.07.44-5.41.89-1.85.59-2.3,1.93-2.3,3.56v39.77c0,1.63.59,2.81,2.3,3.55.89.37,4.07.96,5.41,1.04v.89Z"/>
        <path class="cls-1" d="M336.17,46.51c-1.41.07-3.48.81-4.81,1.48-1.7.89-2.74,2.89-3.78,5.33-3.04,7.04-12.67,29.92-18.44,43.55h-1.33c-6.89-19.04-14.29-39.11-16.67-45.77-.44-1.26-1.18-2.3-2.81-3.33-1.33-.81-3.63-1.11-4.89-1.19v-.89h21.11v.89c-1.18-.15-7.11.52-7.11,2.59,0,.52.22,1.41.37,1.93,2.37,7.04,7.48,20.89,13.33,36.66,4.81-11.26,10.89-25.48,13.11-30.81.74-1.78,1.63-4.96,1.63-6.37,0-2.44-5.55-3.85-8.67-4.07v-.81h18.96v.81Z"/>
        <path class="cls-1" d="M357.27,96.28h-21.41v-.89c1.33-.07,4.44-.3,5.41-.67,1.78-.67,2.3-1.93,2.3-3.55v-39.77c0-1.63-.37-2.81-2.3-3.56-1.33-.52-4.07-1.19-5.41-1.26v-.89h21.41v.89c-1.33.07-4.07.44-5.41.89-1.85.59-2.3,1.93-2.3,3.56v39.77c0,1.63.59,2.81,2.3,3.55.89.37,4.07.96,5.41,1.04v.89Z"/>
        <path class="cls-1" d="M410.82,96.28h-21.48v-.89c2.59-.15,7.78-.96,7.78-2.81,0-.52-.07-1.26-.3-1.78l-5.18-13.04h-18.67c-1.7,4.22-2.81,7.11-3.48,9.48-.52,1.7-.89,3.11-.89,4.15,0,2.67,5.55,3.85,8.81,4v.89h-20.37v-.89c1.41-.07,3.63-.59,5.04-1.41,1.7-.96,3.63-3.04,4.74-5.78,5.26-12.67,11.85-29.26,17.41-43.33h1.04c7.55,18.96,15.11,38.74,17.85,45.55.59,1.48,1.26,2.67,3.04,3.7,1.33.81,3.26,1.18,4.67,1.26v.89ZM391.04,76.21l-8.74-22.29-8.74,22.29h17.48Z"/>
      </g>
    </g>
  </g>
</svg>